<?xml version="1.0" encoding="UTF-8"?>
<svg id="_レイヤー_1" data-name="レイヤー_1" xmlns="http://www.w3.org/2000/svg" version="1.1" viewBox="0 0 800 800">
  <!-- Generator: Adobe Illustrator 29.8.2, SVG Export Plug-In . SVG Version: 2.1.1 Build 3)  -->
  <defs>
    <style>
      .st0 {
        fill: none;
        stroke: #1c274c;
        stroke-linecap: round;
        stroke-miterlimit: 133.33;
        stroke-width: 50px;
      }
    </style>
  </defs>
  <path class="st0" d="M166.67,733.33v-266.67M166.67,466.67l82.36-16.47c55.02-11,112.05-5.77,164.14,15.07,56.45,22.58,118.58,26.8,177.57,12.05l3.34-.83c19.54-4.88,28.8-27.25,18.44-44.52l-52.02-86.7c-11.38-18.97-17.08-28.46-18.43-38.78-.56-4.3-.56-8.66,0-12.97,1.35-10.32,7.04-19.8,18.43-38.78l42.62-71.03c11.15-18.59-5.74-41.39-26.77-36.13-49.63,12.41-101.9,8.86-149.4-10.14l-13.78-5.51c-52.09-20.84-109.12-26.07-164.14-15.07l-82.36,16.47M166.67,466.67v-100M166.67,133.33v-66.67M166.67,133.33v100"/>
</svg>