<?xml version="1.0" encoding="UTF-8"?>
<svg id="_レイヤー_1" data-name="レイヤー_1" xmlns="http://www.w3.org/2000/svg" version="1.1" viewBox="0 0 800 800">
  <!-- Generator: Adobe Illustrator 29.8.2, SVG Export Plug-In . SVG Version: 2.1.1 Build 3)  -->
  <defs>
    <style>
      .st0 {
        fill: none;
        stroke: #fff;
        stroke-linecap: round;
        stroke-linejoin: round;
        stroke-width: 66.67px;
      }
    </style>
  </defs>
  <path class="st0" d="M200,516.67h33.33M200,616.67h33.33M566.67,616.67h33.33M566.67,516.67h33.33M333.33,733.34v-133.33c0-36.82,29.85-66.67,66.67-66.67s66.67,29.85,66.67,66.67v133.33M400,166.67h161.33c1.87,0,2.8,0,3.51-.36.63-.32,1.14-.83,1.46-1.46.36-.71.36-1.65.36-3.51v-89.33c0-1.87,0-2.8-.36-3.51-.32-.63-.83-1.14-1.46-1.46-.71-.36-1.65-.36-3.51-.36h-156c-1.87,0-2.8,0-3.51.36-.63.32-1.14.83-1.46,1.46-.36.71-.36,1.65-.36,3.51v94.67ZM400,166.67v89.7M401,408.33h.25M400,256.36c6.49,0,12.98.95,19.26,2.84,14.26,4.3,26.87,15.65,52.09,38.35l95.31,85.78,52.54,13.13c28.89,7.22,43.33,10.83,54.09,18.89,9.49,7.11,16.91,16.61,21.5,27.54,5.2,12.39,5.2,27.27,5.2,57.05v126.72c0,37.34,0,56.01-7.27,70.27-6.39,12.54-16.59,22.74-29.13,29.13-14.26,7.27-32.93,7.27-70.27,7.27H206.67c-37.34,0-56.01,0-70.27-7.27-12.54-6.39-22.74-16.59-29.13-29.13-7.27-14.26-7.27-32.93-7.27-70.27v-126.72c0-29.78,0-44.67,5.2-57.05,4.59-10.93,12.01-20.44,21.5-27.54,10.75-8.05,25.2-11.66,54.09-18.89l52.54-13.13,95.31-85.78c25.22-22.7,37.83-34.05,52.09-38.35,6.28-1.9,12.77-2.84,19.26-2.84ZM401,433.33c-13.81,0-25-11.19-25-25s11.19-25,25-25,25,11.19,25,25-11.19,25-25,25Z"/>
</svg>