<?xml version="1.0" encoding="UTF-8"?>
<svg id="_レイヤー_1" data-name="レイヤー_1" xmlns="http://www.w3.org/2000/svg" version="1.1" viewBox="0 0 800 800">
  <!-- Generator: Adobe Illustrator 29.8.2, SVG Export Plug-In . SVG Version: 2.1.1 Build 3)  -->
  <defs>
    <style>
      .st0 {
        fill-rule: evenodd;
      }

      .st0, .st1 {
        fill: #fff;
      }
    </style>
  </defs>
  <path class="st1" d="M366.67,400c0,18.41-14.92,33.33-33.33,33.33s-33.33-14.92-33.33-33.33,14.92-33.33,33.33-33.33,33.33,14.92,33.33,33.33Z"/>
  <path class="st1" d="M466.67,433.33c18.41,0,33.33-14.92,33.33-33.33s-14.92-33.33-33.33-33.33-33.33,14.92-33.33,33.33,14.92,33.33,33.33,33.33Z"/>
  <path class="st0" d="M633.33,133.33c0-55.23-44.77-100-100-100h-266.67c-55.23,0-100,44.77-100,100v300c0,49.56,36.06,90.71,83.37,98.62l-80.68,188.25c-7.25,16.92.59,36.52,17.51,43.77,16.92,7.25,36.52-.59,43.77-17.51l5.63-13.13h327.47l5.63,13.13c7.25,16.92,26.85,24.76,43.77,17.51,16.92-7.25,24.76-26.85,17.51-43.77l-80.68-188.25c47.32-7.92,83.37-49.06,83.37-98.62V133.33ZM535.16,666.67h-270.32l14.29-33.33h241.75l14.29,33.33ZM492.3,566.67h-184.61l14.29-33.33h156.04l14.28,33.33ZM566.67,133.33c0-18.41-14.92-33.33-33.33-33.33h-100v166.67h133.33v-133.33ZM366.67,266.67V100h-100c-18.41,0-33.33,14.92-33.33,33.33v133.33h133.33ZM233.33,433.33v-100h333.33v100c0,18.41-14.92,33.33-33.33,33.33h-266.67c-18.41,0-33.33-14.92-33.33-33.33Z"/>
</svg>